<?xml version="1.0" encoding="UTF-8"?>
<svg id="Calque_2" data-name="Calque 2" xmlns="http://www.w3.org/2000/svg" viewBox="0 0 370.04 370.04">
  <defs>
    <style>
      .cls-1 {
        fill: #fefdef;
      }

      .cls-2 {
        fill: #f9b233;
      }

      .cls-3 {
        fill: #a98abf;
      }
    </style>
  </defs>
  <g id="Calque_1-2" data-name="Calque 1">
    <g>
      <circle class="cls-1" cx="185.02" cy="185.02" r="185.02"/>
      <g>
        <path class="cls-2" d="M311.61,161.56c6.6,6.6,9.91,14.43,9.91,23.46s-3.3,16.86-9.91,23.46c-6.6,6.6-14.43,9.9-23.46,9.9s-16.87-3.31-23.46-9.9c-6.6-6.6-9.91-14.42-9.91-23.46s3.3-16.86,9.91-23.46c6.6-6.6,14.42-9.91,23.46-9.91s16.85,3.31,23.46,9.91Z"/>
        <path class="cls-3" d="M192.46,74.23c8.84,3.58,17.46,8.63,25.88,15.15,2.31,1.89,4.31,2.84,6,2.84,4.21,0,6.94-6.31,8.21-18.94h7.26c-.84,14.31-1.26,39.77-1.26,76.39h-7.26c-1.89-15.57-4.42-27.46-7.58-35.67-3.16-8.2-8.52-15.36-16.1-21.46-5.26-5.05-11.36-8.89-18.31-11.52-6.94-2.63-14.21-3.95-21.78-3.95-21.26,0-37.04,10.37-47.35,31.1-10.31,20.73-15.47,46.55-15.47,77.49s5.37,56.4,16.1,77.02c10.73,20.63,26.72,30.94,47.98,30.94,7.15,0,14.25-1.31,21.31-3.95,7.05-2.63,12.99-6.47,17.83-11.52,7.78-5.89,13.2-13.26,16.26-22.1,3.05-8.84,5.42-21.78,7.1-38.82h7.26c0,38.09.42,64.6,1.26,79.54h-7.26c-.63-6.73-1.53-11.52-2.68-14.36-1.16-2.84-2.79-4.26-4.89-4.26-1.69,0-3.9.84-6.63,2.53-9.47,6.74-18.52,11.84-27.15,15.31-8.63,3.47-19.05,5.21-31.25,5.21-22.31,0-41.82-4.52-58.56-13.57-16.73-9.05-29.73-22.15-38.98-39.3-9.26-17.15-13.89-37.61-13.89-61.39s4.73-43.67,14.2-61.55c9.47-17.88,22.67-31.77,39.61-41.67,16.94-9.89,36.25-14.84,57.92-14.84,12.63,0,23.36,1.79,32.2,5.37Z"/>
      </g>
    </g>
  </g>
</svg>