<?xml version="1.0" encoding="UTF-8"?>
<svg id="Calque_2" data-name="Calque 2" xmlns="http://www.w3.org/2000/svg" viewBox="0 0 152.93 402.06">
  <defs>
    <style>
      .cls-1 {
        fill: #adcfec;
      }
    </style>
  </defs>
  <g id="Calque_1-2" data-name="Calque 1">
    <g>
      <path class="cls-1" d="M127.86,111.68c-9.46-2.73-18.67-6.68-26.93-12.08-5.45-3.56-13.25-7.19-9.14-14.99l11.06-1.43-8.99-.02,5.99-1.98c-7.21.9-15.59,1.25-20.99-4.51-13.4-14.28-17.3-36.65-12.32-55.32,5.01-18.77,25.3-30.86,33.04-6.41,7.1,22.4-3.96,44.74-15.72,63.21,3.13,2.48,7.47-8.36,8.59-9.9,6.13-8.45,12.83-15.69,21.72-21.28l12.69-4.8c-11.7-.49-20.83,7.71-28.99,14.99,5.03-15.11,10.28-32.18,3.17-47.67C96.49-.37,85.55-1.93,76.15,1.98c-16.13,6.71-17.84,36.36-15.31,51.2-6.03-6.95-12.98-14.79-22.98-14.99l6.53,2.96c12.3,7.02,18.85,22.95,26.63,34.37.95,1.4,3.47,3.3,3.74,4.37.48,1.87-3.19,5.39-1.9,8.3l-4,.99c3.05-.11,6.38-.61,7.84,2.65-8.65,13.5-12.2,30.48-25.35,40.36-2.47,1.86-5.91,2.3-7.5,4.99,6.33-1.48,11.24-5.9,15.99-9.99-1.56,13.88,4.95,28.39,21,25.99-.92-1.83-4.72-.81-7.04-1.45-7-1.95-11.23-13.28-10.99-19.98.34-9.68,4.47-12.59,8.2-19.88,1.73-3.38,6.91-15.99,8.34-17.66,2.18-2.58,7.14-2.35,9.5.49,11.12,13.39,13.89,42.41-.5,54.51-1.58,1.33-4.09,1.32-4.5,2.98,13.48-2.42,18.88-19.85,18.01-31.98l3.55,10.94c9.89,54.93-24.76,90.59-31.43,140.68-3.11,23.38-4.14,60.43-.86,83.6,1.62,11.47,8.82,28.03,8.81,38.27,0,.75-.05,1.69-.16,2.66,1.27,1.59,1.75,3.99.5,5.68-.01.01-.02.03-.03.05,1.27-.79,2.24-1.69,2.39-2.49-1.35-4.48-.37-9.1-1.04-13.63-1.23-8.32-5.06-16.94-6.45-25.55-5.49-34.05-3.42-89.04,7.68-121.73,12.01-35.37,25.42-53.33,25.08-94.01-.12-14.83-6.07-31.55-13.06-44.45,9.85,4.57,19.72,12.15,31.01,11.49Z"/>
      <path class="cls-1" d="M55.84,87.19l-3.01,1,1.02,1.98c-6.86-.58-13.9,4.28-19.34,8.18-12.38,8.87-30.85,29.59-8.41,39.07,2.02.85,5.27.02,5.73,1.75-29.29-2.94-20.35-25.41-3.47-38.97,7.84-6.29,17.29-12.24,27.47-13.01Z"/>
      <path class="cls-1" d="M19.85,37.19l-7.93,3.56c-14.85,12.14-8.91,31.76,6.24,40.62l12.69,5.8C13.1,85.14-5.23,69.59,1.38,50.21c2.83-8.29,9.65-13.24,18.47-13.02Z"/>
      <path class="cls-1" d="M120.85,77.17l14.91-6.57c6.46-3.99,17.68-15,13.13-22.97-1.19-2.08-4.23-2.52-5.04-4.44,4.21.25,8.25,2.15,8.94,6.56,2.12,13.52-19.75,27.55-31.94,27.42Z"/>
      <path class="cls-1" d="M140.86,111.17c.34-1.79,3.07-1.5,4.55-2.94,6.73-6.55-3.13-15.34-9.17-17.93l-17.37-6.11c8.93.05,31.88,7.43,32.81,17.74.44,4.88-6.29,9.25-10.81,9.24Z"/>
    </g>
  </g>
</svg>