<?xml version="1.0" encoding="UTF-8"?>
<svg id="Calque_2" xmlns="http://www.w3.org/2000/svg" viewBox="0 0 677 506.71">
  <defs>
    <style>
      .cls-1 {
        fill: #fff;
      }
    </style>
  </defs>
  <g id="Calque_1-2" data-name="Calque_1">
    <g>
      <path class="cls-1" d="M676.99,418.81c-.95-6.9-2.08-13.77-3.27-20.63-.17-1-.95-1.9-1.46-2.84.02.02.04.04.06.05-.43-.97-.61-2.23-1.34-2.85-3.94-3.36-7.52-6.63-8.48-12.31-1.04-6.16-3.17-12.15-4.82-18.21.25-.11.5-.21.75-.32.33.31.67.61.98.94,2.62,2.8,5.25,5.59,7.85,8.41.74.8,1.42,1.65,2.11,2.5,2.22,2.72,4.43,5.44,6.64,8.16.31-.13.62-.26.93-.38-.7-2.49-1.37-4.99-2.1-7.48-2.61-8.96-6.36-17.04-14.79-22.3-4.85-3.03-8.76-7.28-11.24-12.61-1.43-3.07-2.96-6.1-4.27-9.21-1.27-3.01-2.32-6.11-3.47-9.18l.92-.49c8.26,3.71,16.33,7.62,21.28,15.92,1.47,2.46,3.32,4.73,5.22,6.89.74.84,2.09,1.14,3.16,1.69.19-.27.38-.55.58-.82-1.16-4.58-3.06-8.71-7.27-11.44,2.08,3.39,5.47,6.08,5.42,10.65-1.87-1.77-3.79-3.57-4.98-5.77-3.85-7.08-9.93-11.51-16.8-15.2-3.97-2.13-8.11-3.56-10.4-8.47-1.81-3.87-6.2-6.43-8.3-10.54-.68-1.32-1.68-2.47-2.47-3.73-.38-.6-.63-1.28-1.14-2.35,2.35,1.38,4.22,2.47,6.08,3.56-5.63-4.35-10.74-9.15-13.66-15.84-.36-.82-.8-1.6-1.14-2.42-.1-.24-.02-.57-.02-1.43,1.62.34,3.37.24,4.51,1.03,6.3,4.32,12.5,8.8,18.63,13.36,2.84,2.11,3.39,5.43,4.19,9.13-3.33-.04-6.18-.98-8.91-2.13,2.25,1,4.5,2.01,6.79,2.92.81.32,2.49.34,2.67-.03.41-.87.38-2.11.13-3.1-1.25-4.89-4.42-8.33-8.52-11.11-4.28-2.9-8.42-6.02-12.69-8.95-1.29-.88-2.79-2.03-4.2-2.03-3.87-.02-5.58-2.66-7.48-5.24-.99-1.35-2-2.69-3.03-4.02-.86-1.12-2.13-2.08-2.58-3.33-3.08-8.53-5.91-17.15-9-25.68-1.61-4.45-3.45-8.83-5.48-13.1-1.27-2.67-3.28-4.97-4.63-7.6-2.22-4.35-4.17-8.83-6.25-13.25-1.28-2.72-2.61-5.43-4.07-8.47,8.6,2.83,14.11,1.37,14.16-3.51-2.61.45-5.21,1.22-7.82,1.24-2.62.02-5.25-.7-7.88-1.1,5.41-5.86,11-3.42,16.59-1.59-5.07-3.18-10.35-4.61-15.89-1.37-1.95,1.14-2.93.84-4.03-1-2.35-3.91-4.88-7.72-7.35-11.6,4.68,2.22,9.52,3.42,14.64,1.58,4.4-1.58,8.82-3.13,13.11-4.98,1.24-.54,2.07-2.04,3.08-3.1-1.23-.94-2.36-2.47-3.72-2.73-5.38-1.01-10.82-1.7-16.25-2.36-4.74-.58-8,1.45-9.96,5.91-.61,1.39-1.29,2.76-2.08,4.46-.78-.98-1.2-1.52-1.62-2.06-9.86-12.78-19.45-25.77-29.64-38.28-11.86-14.56-25.42-27.53-39.71-39.68-5.46-4.64-11.38-8.73-17.2-12.94-13.08-9.45-26.01-19.13-39.4-28.13-12.62-8.48-26.42-14.76-40.95-19.35-1.39-.44-2.73-1.01-4.1-1.52-.08.23-.16.46-.24.69.79.35,1.56.73,2.36,1.04,7.6,2.99,15.6,5.23,22.72,9.1,11.52,6.27,22.86,13.04,33.57,20.59,21.57,15.21,43.37,30.22,61.67,49.53,8.01,8.45,16.24,16.72,23.9,25.48,5.83,6.66,11,13.91,16.32,21.01,4.1,5.47,7.99,11.1,11.97,16.65-6.74,4.73-8.86,10.11-6.12,15.33,4.73-2.12,6.48-6.68,9.28-11.75,1.45,4.11,2.8,7.38,3.66,10.78.23.9-.89,2.29-1.63,3.27-1.8,2.41-3.73,4.72-5.61,7.07.3.23.6.47.91.7,1.49-1.98,2.91-4.02,4.52-5.89.58-.67,1.63-.95,2.46-1.4.48.91,1.33,1.82,1.34,2.74.01.96-.53,2.44-1.27,2.81-4.01,2.01-8.15,3.75-12.25,5.58l-.54-.8c.86-2.06,1.71-4.11,2.57-6.17-.25-.1-.5-.2-.74-.3l-3.68,8.31c.3.21.59.43.89.64,5.43-2.31,10.86-4.62,16.67-7.09,1.25,4.22,2.59,8.72,3.91,13.19-10.91,3.86-12.16,4.54-13.53,7.79,3.69-3.59,7.7-5.09,12.64-6.08-3.22,2.6-5.88,4.75-8.55,6.9.23.27.45.54.68.81,2.05-1.66,4.04-3.42,6.21-4.92.71-.49,2.32-.75,2.79-.32,2.15,1.97,1.04,5.65-1.81,6.43-3.75,1.03-7.5,2.05-11.26,3.01-.97.25-2,.26-3.52.45.63-2.06,1.08-3.53,1.54-4.99-.24-.07-.49-.15-.73-.22-.67,2.06-1.34,4.13-2.28,7.01,7.09-1.81,13.16-3.36,19.64-5.01.24,4.42.27,8.29.7,12.13.38,3.41-1.18,5.14-4.13,6.27-2.2.84-4.31,1.94-6.46,2.92.1.24.21.48.31.71,3.34-1.28,6.67-2.57,10.28-3.96.22,2.59,1.48,4.88-1.36,5.96-5.08,1.92-10.29.61-15.68.79,2.46-7.46,8.8-7.25,14.39-8.34-9.23-.84-14.65,3.05-15.72,9.27h18.5v15.25c-11.46-1.79-15.98.86-15.71,8.82,4.86-.57,9.74-1.15,15-1.77-2.11,9.38-3.72,18.41-7.28,27.02-11.96-6.73-15.96-2.2-16.66,4.26,4.38.89,8.79,1.79,13.5,2.76-2.4,4.7-4.85,9.49-7.51,14.69-.81-1.93-1.12-3.38-1.95-4.39-.55-.66-2.3-1.26-2.77-.9-3.97,3.04-8.17,5.29-13.32,5.41-.48.01-.94.81-1.41,1.24.42.37.84.73,1.26,1.1.68-.58,1.34-1.53,2.04-1.56,3.96-.21,7.31-1.68,10.36-4.14,1.99-1.6,3.15-1.1,3.72,1.4.55,2.42-1.46,4.41-4.1,4.06-.96-.13-1.93-.23-2.89-.35,1.01,1.14,2.89,1.76,2.91,2.42.05,2.06-.06,4.49-1.11,6.14-2.91,4.57-6.01,9.11-12,10.33-3.33.68-5.41,3.04-5.92,6.4-.59,3.9-.88,7.85-1.37,12.43,4.15-2.3,7.93-4.06,11.34-6.38,3.46-2.35,3.58-7.33.5-10.16-.49-.45-2.22-.51-2.37-.22-1.46,2.73-2.71,5.58-4.02,8.39l.87.45c1.42-2.56,2.85-5.11,4.32-7.74,2.75,3.28,3.16,5.8.67,7.75-2.8,2.2-6.12,3.73-9.22,5.56-.3-.24-.59-.49-.89-.73.4-3.02.59-6.09,1.25-9.06.91-4.13,3.62-6.09,7.87-6.56,1.2-.13,2.55-.81,3.4-1.67,2.19-2.19,4.14-4.63,6.2-6.99,1.6,3.65,3.04,6.95,4.64,10.62,1.4-2.6,2.39-4.64,3.56-6.58,2.91-4.82,3.58-9.02-1.95-13.21,2.91-5.45,5.83-10.91,8.9-16.67,3.03,8.76,4.86,10.85,9.25,10.86.11-1.07.16-2.15.36-3.21.49-2.54,1.19-5.05,1.57-7.61.74-4.96-.64-6.7-5.58-7.48-.64-.1-1.25-.39-1.71-.53,2.15-8.24,4.25-16.26,6.34-24.28,1.72,4.85,4.37,8.85,8.8,11.91.86-3.57,1.69-6.92,2.45-10.28,1.28-5.61-.57-8.23-6.31-8.48-2.68-.12-3.49-1.47-3.53-3.76-.05-3.89-.08-7.78-.07-11.67,0-1.62.14-3.24.19-4.34,4.13,1.99,7.98,3.97,11.94,5.72,1.93.85,2.3-.56,1.98-2.06-.82-3.86-2.47-7.18-6.4-8.79-1.57-.64-3.18-1.17-4.75-1.81-2.16-.89-3.5-2.18-3.45-4.89.06-3.78-.47-7.56-.57-11.35-.05-1.71.31-3.42.52-5.45.91.53,1.33.77,1.75,1.01.79,2.12,1.47,4.3,2.42,6.35.95,2.03,2.62,3.52,4.99,2.98,2.47-.57,3.27.86,3.88,2.61,4.97,14.35,10.23,28.62,14.75,43.12,4.93,15.8,6.26,32.27,7.16,48.7,1.21,22.25.89,44.53-3.22,66.48-4.36,23.28-12.98,45.15-24.58,65.8-4.15,7.39-8.85,14.47-12.81,21.95-3.9,7.35-8.24,14.29-13.81,20.51-.95,1.06-1.88,1.82-2.93,2.31,1.18.07,2.36.15,3.54.22,15.56-23.01,30.06-46.48,40.65-72.19.29.08.58.16.87.25-.93,4.21-1.63,8.48-2.83,12.61-1.58,5.44-3.5,10.79-5.38,16.15-.83,2.38-2.02,4.32-5,4.85-3.12.55-5.56,3.14-7.39,6.98,2.75-.54,5.2-1.02,8.43-1.65-.9,2.51-1.61,4.59-2.37,6.64-.59,1.59-1.38,3.12-1.82,4.74-.58,2.17-1.3,2.53-3.56,1.56-1.85-.8-4.41-1.51-6.22.73-2.41,1.66-2.66,4.28-3.37,6.95h9.18c-1.69,3.89-3.31,7.67-4.99,11.41.48-.03.97-.06,1.45-.08,1.91-4.45,3.66-8.52,5.39-12.56,1.25,4.27,1.93,8.35,6.58,11.6,1-4.22,2.4-7.71,2.51-11.25.13-3.95-4.35-3.95-6.84-5.7,2.11-5.54,4.14-10.86,6.24-16.38,3.05,3.24,5.71,6.07,8.8,9.36,1.53-4.41,1.54-8.12-.07-11.27-1.01-1.97-3.68-3.09-6.05-4.94.94-2.71,2.11-6.11,3.57-10.35.7,1.79.89,2.8,1.44,3.55,1.97,2.68,3.97,5.36,6.16,7.85,1.08,1.23,2.39.74,2.49-.88.19-3.16.28-6.36.01-9.51-.19-2.27-2.13-3.24-4.2-3.68-1.53-.32-3.08-.53-4.82-.82.45-1.79.94-3.3,1.2-4.86.71-4.3,1.32-8.61,1.97-12.92.22-1.44.18-3,.72-4.3,7.56-18.07,11.03-37.04,12.22-56.45,1.3-21.13,1.35-42.28-1.64-63.29-1.36-9.55-3.37-19.01-5.22-28.48-.54-2.78-1.54-5.46-2.33-8.19.33-.15.67-.3,1-.46,2.25,4.03,4.5,8.07,6.75,12.1.5,1.14,1,2.28,1.49,3.42,5.65,8.54,11.35,17.06,16.91,25.67.72,1.12,1.32,2.95.91,4.06-1.79,4.81-1.98,9.72-1.88,14.73.18,9.66.25,19.31.41,28.97.01.75.4,1.49.61,2.23.29-.02.59-.04.88-.07,6.03-11.02,4.46-23.43,5.67-35.33.26-.04.51-.08.77-.11,2.57,5.56,5.15,11.13,7.93,17.13-1.59-.36-2.5-.56-3.41-.77-.08.16-.16.31-.23.47,1.33.86,2.66,1.73,3.99,2.59-.3.03-.6.07-.9.1-.6,5.08-1.51,10.15-1.72,15.25-.31,7.55.44,15.16-2.29,22.47-.29.78-.2,1.69-.31,2.66,4.76-1.25,6.36-6.61,9.41-30.76.56,1.29,1.02,2.02,1.21,2.81,1.41,5.81,2.82,11.62,4.11,17.46.59,2.64,1.55,5.54-2.5,6.56-.62.16-1.2,1.08-1.52,1.77-1.42,3.07-3.01,6.09-4.04,9.29-1.76,5.5-3.14,11.13-4.7,16.69-.73,2.59-1.51,5.17-2.27,7.76,8.11-9.23,15.47-18.76,16.13-31.79.78,2.5,1.11,4.85,1.18,7.2.25,8.4,1.83,16.95-2.6,24.87-.37.67-.52,1.53-.57,2.31-.36,5.56-.95,11.12-.92,16.67.02,4.68-.41,9.13-2.52,13.36-.41.81-.6,1.73-.89,2.6.28.14.56.29.84.43.58-.89,1.27-1.72,1.73-2.67,1.78-3.67,3.62-7.31,5.17-11.07,1.09-2.65,2.2-5.43,2.47-8.23.71-7.38.75-14.66-.77-22.13-1.27-6.22-.26-12.91-.26-19.02,1.06,3.25,2.23,6.93,3.44,10.6,1.93,5.86,3.81,11.75,5.9,17.56.37,1.01,1.66,1.7,2.52,2.53.42-1.1,1.32-2.26,1.17-3.27ZM589.66,197.89c-3.72,2.83-6.32,2.9-10.4,0h10.4ZM577.68,174.83c-.07-.35-.15-.7-.22-1.06-3.26.61-6.51,1.23-9.68,1.82.44-3.37,3.04-6.06,6.66-5.78,6.14.47,12.26,1.35,18.36,2.21.79.11,1.46,1.1,2.19,1.68-.63.67-1.13,1.67-1.91,1.97-5.01,1.96-9.99,4.03-15.14,5.53-3.9,1.14-7.88.56-11.92-2.07,3.41-3.51,7.67-3.58,11.66-4.31ZM558.04,194.59c-1.85-4.41,1.51-10.77,6.94-11.7-1.25,1.11-1.95,1.74-2.65,2.36,2.28,2.74-.05,7.67-4.29,9.34ZM564.19,333.6c1.67,4.81-1.88,7.9-3.86,11.74-3.92-5.19-4.27-9.18-.98-12,.31,1.11.53,1.95.76,2.78.17,0,.34,0,.52,0v-5.16c.34-.19.68-.38,1.02-.57.87,1.07,2.12,2,2.54,3.22ZM568.5,308.93c-3.7-.18-7.38-.84-11.41-1.38,2.6-6.19,5.5-7.1,11.92-4.07-2.37.93-4.36,1.71-6.35,2.48.07.28.14.56.21.85,1.67-.46,3.33-1.1,5.03-1.32.94-.12,1.97.46,2.95.72-.79.96-1.62,2.76-2.37,2.73ZM580.67,311.22c-.33,3.53-1.18,7.01-1.81,10.56-5.41-2.02-7.78-7.2-5.67-13.15,1.75,2.6,3.23,4.81,4.71,7.01.15-3.74-2.81-6.01-4.55-8.87,4.91-1.97,7.75-.22,7.32,4.44ZM577.58,276.23c-3.53.4-7.07.7-10.65,1.04.39-5.63,2.85-7.57,8.88-6.89-2.15,1.55-4,2.87-5.84,4.19l.41.59c2.05-1.05,4.05-2.26,6.18-3.1,1.35-.53,3.26-1.41,3.9.98.62,2.32-1.07,2.97-2.88,3.18ZM582.76,277.16c.32-.16.63-.31.95-.47,1.33,2.35,2.65,4.7,4.04,7.16,1.45-3.92-2.7-5.88-4.2-9.91,2.69.53,4.98.38,6.36,1.44,1.04.79,1.35,3.17,1.18,4.76-.33,3.11-1.22,6.16-1.9,9.34-4.36-2.25-7.33-8.24-6.42-12.32ZM589.71,253.02c.19-.15.37-.3.56-.45-1.17-1.35-2.33-2.7-3.46-4.01,4.34-.03,8.33,4.07,8.51,8.82-6.29-.51-11.05-3.88-11.92-9.35,2.53,2,4.42,3.49,6.31,4.98ZM581.5,221.43c-.74-.33-1.56-1.11-1.79-1.86-2.17-7.11-4.22-14.25-6.31-21.39.21-.2.42-.4.62-.61.65.59,1.54,1.06,1.91,1.79,3.92,7.92,7.76,15.88,11.88,24.38-2.52-.9-4.47-1.49-6.31-2.32ZM587.22,231.99c-1.17-2.12-2.45-4.18-3.68-6.27,0,0,0,0,.01,0,1.5-2.05,2.91-.19,3.65.52,2.07,1.96,3.76,4.32,5.76,6.71-2.82,1.67-4.48,1.33-5.75-.97ZM576.37,492.5c.66-1.75,1.28-3.42,1.91-5.08,1.91-.19,3.82-.38,5.73-.56l.09.81c-1.92.86-3.84,1.73-5.76,2.59l.29.77c2.08-.61,4.16-1.23,6.38-1.89-.36,3.68-2.21,4.37-8.63,3.35ZM588.92,492.27c1.01,1.68,2.01,3.36,2.96,4.94q1.19-1.32-2.94-7.01c4.59.51,5.59,1.94,4.4,6.41-.48,1.8-1.03,3.58-1.57,5.43-2.84-1.71-4.31-5.7-3.66-9.36.27-.14.55-.27.82-.41ZM602.41,478.48c-2.6-2.97-4.8-5.49-7-8,.3-.32.6-.63.9-.95,1.66,1.33,3.32,2.66,4.98,3.99.16-.11.33-.22.49-.33-.72-.99-1.35-2.07-2.19-2.93-.91-.92-2.03-1.64-3.33-2.66,6.02-1.32,7.67,4.37,6.15,10.88ZM603.04,454.28c1.59,2.15,3.19,4.3,4.78,6.45.26-.16.53-.31.79-.47-1.5-2.47-3-4.93-4.47-7.37,3.85-.33,5.32.69,5.58,4.25.18,2.42.03,4.86.03,7.98-4.69-2.66-6.35-6.28-7.59-10.18.29-.22.58-.44.87-.66ZM636.03,359.2c-.44-10.42-1.05-21.29-1.27-32.16-.06-3.09.98-6.21,1.51-9.32,4.8,7.72,3.87,35.8-.24,41.48ZM647.04,384.98c-.12-.13-.36-.3-.33-.37,3.14-9.39,1.17-19.2,2.32-28.74.29-2.39.88-4.74,1.33-7.1.32.05.64.11.97.16,3.84,6.88,1.2,29.19-4.28,36.06ZM655.1,349.78c11.03,5.72,17.15,15.01,19.2,27.59-7.65-8.58-17.3-15.37-19.2-27.59ZM648.13,413.43c1.09-11.63,6.86-27.35,11.14-29.85,1.35,9.37-3.97,23.46-11.14,29.85ZM661.82,416.49c.42.08.83.15,1.25.23-.97,5.27-1.95,10.55-2.92,15.82-.33-.06-.67-.12-1-.18-.13-5.47.34-10.84,2.68-15.87ZM664.14,419.99c.96,11.26-.39,18.22-4.65,22.89.18-3.31-1.25-6.48,1.01-9.99,1.74-2.71,2.04-6.36,2.95-9.6.26-.92.4-1.88.7-3.3ZM675.99,420.75c-.4.08-.8.16-1.2.25-3.37-10.34-6.74-20.68-10.12-31.02.36-.23.72-.46,1.07-.68,2.17,2.01,4.34,4.02,6.51,6.03,1.25,7.55,2.51,15.1,3.72,22.66.14.9.02,1.84.02,2.76Z"/>
      <path class="cls-1" d="M70.02,504.92c.62-.09,1.25-.16,1.88-.22-3.52-2.64-6.95-5.28-9.46-9.26-2.6-4.12-3.8-9.78-1.19-14.35,4.14,3.23,4.72,6.61,1.97,13.98,2.85-2.92,3.18-5.9,2.68-8.77-.55-3.2-2.41-5.76-6.37-7.56-.51,5.15-.97,9.76-1.41,14.27.28.1.06.08-.07-.04-.52-.47-1.02-.96-1.5-1.46-8.44-8.63-13.89-19.13-18.67-30.03-1.63-3.72-1.27-4.51,2.21-6.77,1.25-.82,2.6-1.53,3.67-2.54.82-.78,1.69-1.91,1.79-2.95.12-1.34-.51-2.76-.82-4.14-1.18.67-2.64,1.1-3.48,2.06-1.42,1.64-2.42,3.65-3.66,5.45-.55.8-1.27,1.49-1.91,2.24-.43-.93-.4-1.59-.06-1.87,2.32-1.95,1.37-3.56-.37-5.23-1.37-1.31-2.72-2.65-3.9-4.12-1.32-1.64-2.45-3.43-3.66-5.16-.33.06-.66.12-.99.19.33,4.48.43,9,1.09,13.43.31,2.12,2.09,3.52,4.5,3.78.81.09,1.56.64,2.34.98-.09.31-.19.62-.28.92-1.08-.17-2.16-.35-3.24-.5-2.56-.33-5.12-.73-7.69-.89-.58-.04-1.21.76-1.82,1.17.38.53.65,1.34,1.15,1.53,4.1,1.57,8.2,3.95,12.39.53,3.61,6.79,6.75,13.73,10.83,20.05,4.02,6.23,9,11.83,13.58,17.75-5.52-1.56-8.75,2.7-13.01,5.1,5.76,3.27,10.8,2.44,16.88-2.63,2.1,1.61,4.22,3.24,6.6,5.06ZM43.66,445.66c1.64,4.03.18,6.15-5.58,8.18,2.07-3.04,3.73-5.47,5.58-8.18ZM32,460.12c-2.59-.52-5.17-1.03-7.76-1.55.04-.39.08-.79.13-1.18,2.62.48,5.24.96,7.86,1.44-.07.43-.15.86-.22,1.29ZM34.44,452.5c-3.69,2.62-5.32,2-5.94-2.66-.31-2.31-.05-4.7-.05-7.57,2.34,2.46,4.29,4.57,6.31,6.6,1.39,1.39,1.3,2.48-.32,3.62ZM50.38,502.19c3.73-4.56,6.54-4.54,10.99-2.81-3.02,4.28-5.48,4.88-10.99,2.81Z"/>
      <path class="cls-1" d="M453.77,109.29c-3.79-5.81-7.89-11.18-15.86-11.04-.66.01-1.32-.56-1.99-.86,1.44-.44,2.62-.3,3.79-.29,2.14,0,3.32-1.26,3.73-3.2.14-.68-.02-1.63-.42-2.15-.23-.3-1.32-.17-1.89.07-1.82.79-3.54,1.84-5.38,2.56-.91.36-2.3.67-2.97.23-5.74-3.72-11.37-7.61-16.98-11.42,1.85-.61,3.77-1.03,5.47-1.89.67-.34.87-1.63,1.28-2.49-.87-.31-1.8-.99-2.59-.86-2.25.38-4.42,1.18-6.66,1.65-1.3.27-2.89.74-3.96.25-4.67-2.11-9.19-4.53-14.47-7.19,1.67-.62,2.63-.84,3.44-1.31,1.45-.83,2.99-1.64,4.18-2.78,1.64-1.57,1.2-2.74-.99-3.34-5.94-1.62-9.67-.08-12.29,5.22-6.61-2.45-13.22-4.91-19.84-7.37,1.39-.86,2.65-1.15,3.92-1.28,1.98-.19,2.57-1.29,2.15-3.08-.42-1.85-1.58-2.46-3.35-1.81-.84.31-1.61.78-2.44,1.12-2.36.98-4.91,2.99-7.08,2.66-4.41-.69-8.62-2.66-13.51-4.3,1.52-1,2.41-1.58,3.29-2.17.91-.62,1.81-1.25,2.93-2.04-5.76-2.57-9.05-1.89-12.12,2.14-5.18-1.37-10.34-2.73-15.48-4.09,2.12-1.31,4.21-2.6,6.66-4.11-3.88-1.99-8.59-1.22-10.98,1.73-1.25,1.54-2.44,1.66-4.13,1.4-3.05-.47-6.13-.76-9.19-1.12-4.21-.49-8.43-.96-13.08-1.5,3.16-2.95,6.06-5.33,8.56-8.08,2.37-2.61,2.43-8.3.64-10.56-3.44,2.16-6.79,4.45-10.31,6.42-2.62,1.47-3.99,3.49-4.14,6.43-.05,1-.24,1.99-.22,2.98.05,1.93-.85,2.63-2.73,2.58-3.69-.1-7.38-.08-11.07-.09-3.22-.01-6.44,0-9.66,0-.27-.32-.54-.64-.8-.96,8.48-3.39,6.29-9.92,6.07-16.23-3.23,1.78-5.97,3.41-8.81,4.83-3.57,1.78-5.57,4.29-5.13,8.53.09.86-1.03,2.56-1.77,2.67-7.32,1.08-14.67,1.91-22.56,2.88,1.34-1.24,2.23-2.16,3.21-2.96,4.01-3.29,5.23-7.64,4.72-12.58-.09-.88-.55-1.99-1.22-2.44-.42-.29-1.63.29-2.32.74-1,.64-1.83,1.54-2.77,2.27-5.47,4.24-11.02,8.4-11.69,16.15-.04.51-.8,1.29-1.32,1.37-5.02.86-10.07,1.61-15.1,2.38,1.83-2.72,3.75-4.86,5.81-6.86,2.05-1.99,4.24-3.84,6.37-5.75-.14-.24-.28-.49-.42-.73-2.34.3-4.7.47-7.01.91-6.13,1.18-11.15,3.75-12.69,10.56-.2.89-1.16,2.15-1.93,2.29-3.47.62-7,.89-10.98,1.34,3.16-4.93,6-9.37,9.18-14.32-2.79.64-5.37.91-7.69,1.82-5.99,2.35-10.41,6.17-10.99,13.16-.05.64-.61,1.63-1.14,1.79-3.68,1.12-7.41,2.07-11.12,3.08-.26-.34-.53-.68-.79-1.02,3.24-3.79,6.49-7.59,9.88-11.55-1.43.07-2.77.18-4.11.21-6.34.13-12.16,5.96-12.44,12.36-.03.73-.47,1.85-1.03,2.1-3.3,1.48-6.69,2.75-10.74,4.36,1.24-2.2,1.99-3.83,3-5.27,1.03-1.47,2.32-2.75,3.65-4.3-6.77-.77-14.05,6.08-13.81,12.36.04,1.01-.41,2.47-1.15,3-6.92,4.98-13.96,9.8-21.21,14.84.16-.57.16-.89.31-1.08,1.67-2.07,3.36-4.12,5.04-6.18-2.8-2.05-5.82-1.58-11.93,2.14,1.88-3.36,3.5-6.26,5.08-9.1,9.89,2,16.93-1.65,20.67-10.63-3.09-1.75-6.23-1.23-9.14.18-2.88,1.4-5.53,3.27-8.59,5.12.65-2.25,1.18-4.12,1.72-5.98-.44-.88-1.11-1.73-1.29-2.66-.61-3.27-.86-6.65-3.47-9.51-1.38,1.71-2.61,3.24-3.84,4.78-5.01,6.24-4.55,9.42,1.85,14.23.74.55,1.55,2.13,1.27,2.73-1.86,3.91-4.01,7.69-6.2,11.77-1.43-4.16-2.72-7.92-4.01-11.68-.33-.04-.65-.07-.98-.11-1.37,2.47-3.06,4.83-4.05,7.44-2.58,6.82-1.71,9.17,4.43,13.04-3.79,4.4-7.54,8.77-11.3,13.13-.24-.13-.49-.26-.73-.39.85-3.03,1.71-6.06,2.73-9.67-3.93,1.39-7.28,2.83-8.61,6.03-1.21,2.91-1.17,6.35-1.76,10.1-.09.02-.72.19-1.48.38-.8-3.33-.54-6.98-4.25-9.13-1.65,4.56-1.4,8.21,3.66,10.66-2.44,3.95-4.67,7.55-6.9,11.17-7.26,11.79-15.19,23.23-21.57,35.48-4.82,9.26-7.96,19.46-11.31,29.42-3.48,10.38-5.93,21.11-9.59,31.42-2,5.63-3.54,11.13-3.76,17.08-.12,3.27-.88,6.52-1.35,9.77-.27-.03-.53-.06-.8-.09-1.56-7.59-3-15.21-4.71-22.77-2.53-11.19-2.79-22.52-2.52-33.9.06-2.41.6-4,3.66-3.62,1.54.19,3.2-.62,4.81-.97-.06-.29-.12-.57-.19-.86-2.05.46-4.11,2.15-6.23.26,2.27-2.12,4.4-4.11,6.53-6.1-.15-.17-.31-.33-.46-.5-1.69,1.5-3.38,3-5.07,4.5-.2-.18-.41-.36-.61-.53,1.04-3.55,2.11-7.09,5.38-9.47,2.09-1.52,4.16-3.07,6.24-4.6,1.58-1.16,2.33-2.52,1.55-4.02-1.34,1.58-2.53,3.16-3.92,4.54-.9.89-2.3,1.31-3.14,2.24-2.58,2.85-4.99,5.84-7.99,9.4,1.95-7.02,3.62-13.56,5.66-19.97.42-1.32,2.08-2.63,3.47-3.16,3.01-1.16,5.61-2.59,7.09-5.6-2.65,1.62-4.52,4.7-8.75,4.35,4.47-8.77,8.03-17.71,18.42-21.55-1.24-.34-1.83-.5-2.42-.66,2.39-4.77,4.46-9.49,7.04-13.9,3.56-6.1,7.53-11.97,11.28-17.96,1.93-3.07,3.56-6.22,2.96-10.09-.33-2.12-1.22-3.47-3.43-3.91-2.93-.59-5.81-1.44-8.74-1.98-5.11-.95-8.08,1.61-8.08,6.79,0,1.05,0,2.1,0,3.65-1.55-.61-2.62-1.05-3.69-1.46-5.17-2.01-9.72,1.44-8.91,6.78.21,1.38.68,2.71.85,4.09.84,6.5,1.61,13,2.41,19.51-.25.03-.49.07-.74.1-.82-2.61-1.64-5.22-2.46-7.82-.23.07-.46.15-.7.22.96,3.67,1.93,7.35,2.95,11.21-.73-.22-1.18-.36-1.6-.49.25.7.44,1.44.8,2.07,2.37,4.21,2.57,8.35-.17,12.5-.71,1.08-1.23,2.28-1.91,3.38-1.36,2.19-2.76,4.35-4.15,6.53-.59-4.15-3.22-8.26,1.04-11.69-2.68,1.14-3.47,2.21-3.32,4.66.13,2.08.59,4.15.73,6.23.07,1.11-.23,2.25-.37,3.38-.91-.54-1.04-.99-1.19-1.44-1.59-4.7-3.01-9.48-4.85-14.08-1.01-2.53-2.58-4.78-.31-7.52-1,.67-2.14,1.54-2.1,2.36.09,1.7.66,3.43,1.29,5.05,2.48,6.39,6.25,12.5,3.73,20.14,1.07-.21,1.88-.38,2.82-.56-5.79,14.52-6.75,29.61-6.44,44.5-2.73-2.8-5.45-5.32-7.81-8.16-.84-1.01-1.01-2.76-1.03-4.18-.02-1.35.65-2.7.84-4.08.37-2.66.61-5.34.91-8.02-.25-.02-.51-.04-.76-.06-.73,4.94-1.46,9.87-2.22,15.05-8.08-2.21-6.82-8.72-6.57-14.8-.65,1.1-.87,2.04-1.05,3-1.09,5.96.65,9.9,6.15,12.33,6.3,2.79,9.88,7.79,11.51,14.04,1.65,6.31,2.3,12.87,3.62,19.27,2.26,11.01,5.3,21.91,3.73,33.35-.19,1.37-.04,2.79.01,4.18.5,13.23,1.01,26.47,1.51,39.7.03.79-.1,1.59-.16,2.38-.58-.9-.76-1.76-.87-2.64-.78-5.83-2.62-11.26-6.19-15.99-3.24-4.29-5.43-9.02-6.33-14.33-.11-.68-.4-1.33-.61-1.99-.33.05-.65.11-.98.16.15,1.38.13,2.8.49,4.12,2.23,8.16,4.37,16.35,6.92,24.41.87,2.75,2.83,5.15,4.29,7.72,1.12,1.96,2.96,3.83,3.22,5.9.52,4.04.15,8.19.15,11.89-3.25-4.63-6.47-9.22-9.7-13.81,3.44,6.15,7.64,11.95,9.09,19.05.21,1.02.48,2.02.38,3.16-7.26-7.18-11.5-15.89-13.96-26.43,1.79,1.65,3.04,2.81,4.3,3.97-1.96-3.09-3.78-6.29-5.93-9.25-2.03-2.8-2.05-6.95-5.71-8.69-.13.9.09,1.61.38,2.28,2.26,5.18,5.07,10.2,6.68,15.58,2.81,9.39,7.4,17.56,14.12,24.64.98,1.04,1.81,2.47,2.12,3.86,1.71,7.66,3.23,15.37,4.8,23.06.02.12-.19.29-.2.29-8.5-3.67-15.05-9.58-19.98-17.48,0,1.31.42,2.25.96,3.1,2.46,3.87,5.09,7.63,7.41,11.58,2.91,4.97,6.33,9.39,11.22,12.61,3.61,2.37,6.25,5.47,6.63,10.06.11,1.27.46,2.57.93,3.76,4.28,10.94,8.5,21.91,12.96,32.79,8.83,21.57,18.8,42.49,35.28,59.56,1.85,1.91,3.4,4.12,5.08,6.19-1.23-.53-2.04-1.4-2.95-2.16-2.89-2.4-5.52-5.33-8.79-7.02-6.01-3.12-11.45-6.81-16.02-11.81-1.06-1.15-2.4-2.04-3.61-3.05-.26.24-.52.48-.77.72,2.55,3.84,5.1,7.69,7.66,11.53.32-.2.64-.41.96-.61-1.49-2.19-2.98-4.38-4.47-6.57,4.87,4.84,10.55,8.2,16.64,11.05,2.02.95,3.85,2.52,5.46,4.12,2.9,2.87,5.58,5.97,8.33,8.99.62.68,1.13,1.48,1.68,2.22-.18.19-.36.38-.54.56-9.27-5.58-18.53-11.16-26.43-18.83.37,1.02.92,1.89,1.63,2.58,7.29,7.07,15.69,12.64,24.76,17.03,4.87,2.35,8.16,5.89,11.38,10.2,1.01-.04,2.01-.08,3.02-.12-.54-.22-1.05-.48-1.5-.81-3.27-2.39-4.02-5.72-4.43-9.72-.86-8.59-2.59-17.09-3.99-25.63-.18-1.1-.52-2.17-.79-3.26-.34-.05-.68-.11-1.02-.16-.86,2.07-1.72,4.15-2.74,6.61-.09-1.02-.15-1.66-.21-2.3-.86-8.72-1.67-17.44-2.65-26.14-.16-1.46-1.06-2.84-1.61-4.26-.38.1-.77.21-1.15.31-1.78,12.79.74,25.47,1.48,38.25-2.3-4.05-4.75-8-6.11-12.3-3.24-10.23-6.07-20.6-8.85-30.97-1.27-4.73-.51-5.81,3.98-7.77,2.01-.87,4.32-1.35,5.96-2.67.97-.78.89-2.85,1.28-4.34-1.26.12-2.84-.2-3.7.45-1.89,1.41-3.33,3.4-5.11,4.97-.89.79-2.13,1.2-3.21,1.78-.38-.97-.98-1.91-1.11-2.91-.54-4.15-.73-8.35-1.44-12.47-.67-3.9-.38-6.71,3.97-8.5,2.39-.98,5.02-3.11,3.94-6.93-4.24.09-5.32,4.25-9.07,6.62,0-4.54.1-8.39-.04-12.23-.08-2.38.45-4.09,2.64-5.5,2.89-1.87,3.68-4.8,2.28-7.21-2.37-4.06-4.88-8.04-7.48-12.29-.34,2.25-.92,4.53-.97,6.83-.11,4.49-3.6,9.37,1.36,13.35.07.05.1.18.11.27.37,4.92.75,9.84,1.08,14.76.02.28-.31.59-.38.7-1.31-1.52-2.55-2.94-3.78-4.37.76,1.72,1.52,3.46,2.36,5.35-3.79.73-3.66-2.56-5.24-4.1.07,3.77.98,5.01,4.31,5.45,2.44.32,3.24,1.4,3.44,3.87.5,6.35,1.41,12.66,2.12,18.99.08.71.01,1.43.01,2.25-2.02-2.58-3.82-5.02-5.81-7.31-.42-.48-1.67-.67-2.3-.41-.44.18-.72,1.38-.65,2.08.43,3.74,5.65,8.26,9.72,8.1,2.76,17.74,8.71,34.56,16.43,50.92-7.35-8.62-15.06-17.03-20.62-26.67-7.15-12.38-12.82-25.64-18.65-38.73-4.21-9.45-7.6-19.26-11.43-28.89-1-2.51-.09-3.77,2.14-4.97,1.66-.89,3.67-2.24,4.25-3.84,1.48-4.09,2.24-8.44,3.28-12.69-.31-.07-.62-.15-.93-.22-.16.63-.33,1.26-.49,1.89-.83,3.38-1.39,6.85-2.6,10.09-.51,1.37-2.38,2.22-3.63,3.31-.12-1.53-.67-3.18-.28-4.58,2.67-9.69,5.52-19.33,8.32-28.99-.47.63-1.04,1.23-1.26,1.93-1.85,5.89-3.65,11.8-5.4,17.72-1.15,3.86-2.21,7.75-3.56,12.52-1.26-1.64-2.28-2.44-2.57-3.45-2.48-8.4-4.93-16.82-7.12-25.3-.5-1.91-.21-4.15.17-6.14.61-3.13,1.57-6.19,2.4-9.27-.93,1.4-1.86,2.79-2.82,4.24-2.82-4.28-2.3-11.24.89-15.49,1.75-2.33,3.25-4.85,4.86-7.28-.31-.2-.62-.39-.93-.59-2.68,4.36-5.36,8.71-8.06,13.09-.11-.57-.38-1.31-.38-2.06-.01-4.88,0-9.75.08-14.63.02-1.23.74-2.57.42-3.65-.72-2.46.7-3.47,2.63-4.39-.48,1.16-.95,2.33-1.43,3.49.96-.47,1.67-1.11,1.9-1.89,1.09-3.75,3.66-6.48,5.9-9.52,2.62-3.56,4.76-7.53,6.72-11.51,2.5-5.06,4.7-10.27,6.84-15.5.75-1.83.93-3.89,1.37-5.85-.31-.2-.61-.4-.92-.6-.89.77-1.78,1.54-2.66,2.31.66-.08,1.32-.15,2-.23-.21,5.12-12.07,29.12-16.16,32.26,2.33-12.13,4.15-23.92,14.25-32.12-1.59,1.12-3.36,2.05-4.74,3.39-3.7,3.57-5.49,8.26-6.85,13.06-1.54,5.45-2.48,11.08-4.18,16.48-.68,2.17-2.69,3.92-4.1,5.85-.28-.18-.55-.36-.83-.54-.05-.48-.13-.96-.15-1.44-.48-11.23-1.46-22.46-1.26-33.67.17-9.24,1.72-18.45,2.71-27.67.16-1.48.2-3.19.97-4.33,2.14-3.16,4.04-7.24,7.13-8.81,3.94-2,9.14-3.74,13.09,1.13.09.12.46.01,1.08.01-3.4-4.35-7.45-4.56-11.97-2.73.26-1.46.44-2.47.62-3.48l-5.24,5.38c-.24-.19-.48-.38-.72-.56,1.25-1.82,2.41-3.7,3.75-5.44,4.93-6.37,9.5-13.23,18.93-13.25,4.06,0,8.24-.95,12.16-.25,5.41.96,10.11-.4,14.62-1.97-7.22.33-14.74.68-22.1,1.01,2.65-3.45,5.09-6.63,7.53-9.82-.34-.25-.68-.5-1.02-.75-.47.76-1.11,1.46-1.37,2.29-1.53,4.98-5.63,7.11-10.06,7.86-6.75,1.15-11.81,4.44-15.87,9.7-.97,1.25-1.96,2.49-2.93,3.73-.24-.17-.49-.35-.73-.52,3.23-5.7,6.09-11.65,9.77-17.05,4.83-7.1,10.94-13.03,18.11-17.98,5.99-4.13,11.57-8.81,18.51-11.38,1.6-.59,2.22-.14,3.35,1.17,4.83,5.66,9.87,11.15,15.03,16.51,1.25,1.3,3.19,2.04,4.92,2.75,2.03.83,3.27.3,3-2.28-.26-2.51-.28-5.05-.4-7.47,4.4,1.15,8.25,2.36,12.2,3.12,2.54.49,3.46-.66,2.59-3.1-.65-1.82-1.89-3.45-3-5.08-.77-1.14-2.03-2.03-2.56-3.25-.45-1.03-.15-2.37-.18-3.58.88.04,1.79-.06,2.63.15,3.07.76,6.9-.94,6.96-3.38.11-4.47.15-8.96-.13-13.41-.22-3.63-2.1-6.04-5.55-5.88-6.6.29-9.22-2.56-10.17-8.87-.69-4.56-5.1-6.19-9.24-6.87-3.85-.64-7.52.04-10.27,3.37-3.17,3.84-3.69,8.31-3.25,12.98.37,3.95.19,7.7-1.57,11.38-.97,2.03-1.86,4.37-1.81,6.55.05,2.54-1.26,3.14-3.06,3.97-12.46,5.73-23.17,13.9-32.37,24-3.01,3.31-5.57,7.04-8.81,11.19,1.79-4.29,3.2-7.89,4.8-11.41,1.8-3.95,3.44-8.03,5.78-11.64,2.03-3.13,4.94-5.68,7.95-9.03-5.71,3.22-8.68,8.07-12.12,12.52.14-7.59,3.47-13.96,7.34-20.09.43-.69,1.69-.88,2.58-1.25,2.91-1.17,5.82-2.32,8.73-3.47-2.36.61-4.77,1.22-7.65,1.96.58-7.16,7.69-8.78,10.45-13.82-2.99,2.44-5.98,4.87-9.2,7.5q-.11-9.85,6.23-16.23c1.84-1.86,3.54-3.85,5.3-5.78-2.7,2.03-5.01,4.43-7.56,6.56-3.01,2.52-4.73,5.42-4.68,9.51.05,4.64-1.34,8.63-4.61,12.41-2.89,3.34-4.29,7.95-6.41,11.97-1.13,2.14-2.38,4.21-3.58,6.31-.23-.13-.47-.26-.7-.39,2.94-11.2,6.89-22,12.97-31.94,4.42-7.22,8.86-14.43,13.41-21.57.5-.78,1.92-1.61,2.74-1.46,4,.71,6.17-2.37,9.28-3.44-.07-.3-.14-.6-.21-.9h-8.11c1.46-1.66,2.33-2.85,3.41-3.81.72-.65,1.75-1.44,2.59-1.38,4.88.34,9.49-.44,13.8-2.77,1.21-.65,2.33-1.46,3.5-2.2l-.26-1.07c-3.51-.37-7.03-.74-10.54-1.11,3.35-1.44,6.89-2.58,10.52-3.27,1.32-.25,3.31.13,4.18,1.02,2.82,2.89,6.41,3.07,9.93,3.38,2.28.2,2.99-1.15,1.55-2.98-1.42-1.79-3.32-3.2-5.23-4.99,3.6-1.32,7.42-2.71,11.24-4.11.88,2.4,1.56,4.25,2.24,6.1.25-.1.5-.19.75-.29-.2-.89-.39-1.79-.59-2.68.19-.12.39-.24.59-.36,1.14,1.24,2.28,2.48,3.7,4.03-1.2.1-1.89.16-2.57.22,3.6,1.94,6.8,4.9,11.5,3.39-4.14-3.56-4.56-10.45-11.31-11.7,3.23-1.27,6.49-2.09,9.62-3.25,2.08-.78,2.99-.16,3.86,1.72,1.25,2.72,2.67,5.47,5.97,6.25,3.05.72,6.14,1.3,9.69,2.04-2.72-5.37-6.3-9.32-11.7-11.61.13-.3.26-.6.4-.9,7.78-1.01,15.55-2.02,23.91-3.11-1.38,2.58-2.48,4.25-3.2,6.06-2.13,5.36.68,9.26,6.38,9.22,1.65-.01,3.29.53,4.94.73.99.12,2,.07,3.01.09-.39-1.01-.5-2.38-1.23-2.96-4.21-3.31-4.74-7.93-5.11-13.2,5.32.58,10.4,1.14,14.65,1.6,1.11,2.56,1.47,4.95,2.86,6.27,2.71,2.57,5.97,4.56,9.04,6.74.57.4,1.29.59,1.94.87.32-.23.64-.45.96-.68-1.53-3.59-3.07-7.17-4.69-10.96,3.73,1.11,7.18,1.77,8.93,6.05,2.01,4.92,7.28,5,11.82,6.3-1.76-3.53-4.02-6.52-6.22-9.57-.21-.29-.05-.85-.04-1.29,3.82-.32,5.54-3.16,7.28-6.08-5.62.4-11.9-1.25-14.64,5.58-5.31-1.63-10.22-3.14-15.21-4.67,1.92-1.55,3.78-3.01,5.6-4.51,1.83-1.51,3.64-3.05,5.82-4.88-4.12,0-7.72-.32-11.23.08-4.17.48-7.4,2.76-9.33,6.66-.32.64-1,1.53-1.53,1.55-4.63.12-9.26.07-14.39.07,1.26-2.35,1.95-4.27,3.18-5.74,1.17-1.41,2.9-2.35,4.51-3.6-8.27-2.57-15.5,2.55-14.01,9.97-4.66.76-9.3,1.52-14.9,2.43,2.38-3.76,4.3-6.8,6.58-10.39-2.21.44-3.9.77-5.58,1.12-4.91,1.01-6.83,3.75-6.31,8.77.08.76-.17,2.14-.59,2.29-3.34,1.14-6.76,2.05-10.73,3.19,1.61-3.51,2.93-6.39,4.44-9.7-2.17.7-3.84,1.25-5.52,1.78-6.53,2.08-7.88,4.09-7.16,10.86-2.72,1.01-5.48,2.04-8.54,3.17,1.9-3.12,3.6-5.9,5.3-8.68l-.64-.5c-4.65,2.18-8.98,4.73-11.1,9.91-.31.76-.85,1.74-1.52,1.97-2.54.88-5.16,1.48-8.23,2.32,15.54-13.94,30.87-27.09,48.61-37.47,4.1,5.47,9.63,2.51,14.78,2.39.09-.29.19-.57.28-.86-3.52-1.73-7.03-3.45-10.89-5.35,4-1.83,8.15-3.72,12.5-5.71.77,1.84,1.32,3.21,1.91,4.56,1.54,3.53,3.39,4.26,7.15,3.4,2.18-.5,4.48-.47,6.73-.64.73-.06,1.47,0,2.88,0-3.01-5-7.64-6.55-12.64-8.67,4.92-1.32,9.12-2.48,13.35-3.56,2.65-.67,3.25.04,2.91,2.89-.36,2.95-.43,6.47,2.36,7.82,3.78,1.82,8.13,2.47,12.23,3.62.17-.3.35-.6.52-.91-3.54-4.98-7.07-9.97-10.89-15.34,3.79-.58,7.43-.98,11-1.73,3.14-.66,4.65.65,5.3,3.51.62,2.71,2.07,5.15,4.77,5.64,4.18.76,8.5.8,12.76,1.15.18-.44.36-.88.54-1.32-4.21-3.3-8.43-6.59-12.33-9.64,5.9-.79,12.44-1.66,19.01-2.54.24,11.32,2.24,16.11,7.42,17-1.32-4-2.58-7.81-4.17-12.66,6.68,2.57,10.29-.9,14.38-3.94,3.28-2.44,7.17-4.23,11.03-5.67,4.65-1.74,5.47-1.03,6.64,3.85.12.48.19.98.35,1.45,1.66,4.86,8.22,8.08,12.97,5.89-2.17-3.53-4.32-7.02-6.51-10.58,7.55,0,14.91,0,22.27,0,1.54,0,2.03.72,1.85,2.29-.3,2.58.48,4.91,3.05,5.92,3.78,1.5,7.68,2.71,11.65,4.08.25-5.75-4.45-8.22-8.77-11.89,5.45.52,10.07.89,14.67,1.42,5.02.57,10.43.3,13.5,5.63.18.32.58.61.94.71,1.27.38,2.57.68,3.86,1.02-.03-1.29-.07-2.58-.08-3.87,0-.16.14-.33.42-.92,4.1,1.25,8.28,2.47,12.41,3.83.63.21,1.16,1.02,1.52,1.67.72,1.31,1.14,2.79,1.96,4.03.76,1.15,1.88,2.06,2.85,3.08.32-1.33.71-2.64.94-3.99.11-.64-.1-1.33-.23-2.53,3.37,1.17,6.31,2.31,9.33,3.18,1.83.53,2.72,1.35,3.11,3.35.61,3.09,2.35,5.68,4.65,7.79.35-.13.71-.26,1.06-.39-.57-2.68-1.15-5.36-1.84-8.62,7.78,2.9,15.14,5.61,22.45,8.45.58.22.76,1.44,1.13,2.19,1.05,2.1,1.99,4.27,3.2,6.27.36.6,1.46.75,2.22,1.11.32-.68.83-1.34.9-2.05.15-1.34.04-2.71.04-4.61,4.43,2.31,8.4,4.31,12.27,6.5.57.32.62,1.54.94,2.33,1.15,2.79,2.32,5.57,3.48,8.36.41-.03.83-.06,1.24-.08.38-2.25.75-4.51,1.22-7.28,5.11,3.37,9.83,6.48,14.56,9.59,2.13,1.4,3.25,3.13,3.09,5.92-.18,3.14.64,3.6,3.53,3.04.54,1.9.79,3.96,1.7,5.65.68,1.26,2.14,2.75,3.4,2.9,3.64.43,7.35.33,11.03.26,1.78-.04,2.26-1.18,1.29-2.66ZM442.29,92.9c-.77,3.48-2.74,3-4.89,2.16,1.43-.63,2.86-1.26,4.89-2.16ZM134.16,63.34c-2.89,6.01-9.5,11.63-15.01,9.01,2.86-1.5,5.32-2.78,7.78-4.07-.14-.27-.27-.55-.41-.82-2.46,1.02-4.92,2.05-7.56,3.15,3.17-5.17,10.64-8.66,15.21-7.27ZM114.57,56.29c-.35.04-.71.09-1.06.13.19,3.38.38,6.76.59,10.33-6.45-2.17-5.35-8.26,1.52-14.17,2.8,3.74,3.24,11.41.3,14.55-.49-3.92-.92-7.38-1.35-10.84ZM52.44,87.72c2.94.44,5.84,1.21,8.76,1.81,1.98.41,3.15,1.73,2.74,3.6-.63,2.85-1.31,5.84-2.72,8.35-4.15,7.35-8.48,14.62-13.13,21.66-1.69,2.56-4.5,4.37-6.8,6.52,2.96-6.47,2.79-13.63,3.67-20.66.65-5.21,1.99-10.25,1.29-15.64-.56-4.34,1.84-6.3,6.2-5.65ZM35.38,115.65c-.56-4.42-1.45-8.8-1.95-13.22-.17-1.53-.06-4.16.73-4.53,2.01-.92,4.47-.95,6.76-1.1.79-.05,1.61.8,2.46.91,1.74.23,2.13,1.16,1.81,2.7-.58,2.83-1.24,5.64-1.63,8.49-.35,2.54-.13,5.17-.58,7.69-.65,3.59-1.5,7.17-2.67,10.61-.31.93-2.08,1.36-3.49,2.21-.47-4.57-.86-9.18-1.44-13.77ZM16.32,287.11c5.65,6.15,8.89,13.3,8.84,21.81-5.62-6.17-6.63-14.23-8.84-21.81ZM100.91,468.95c.61,5.31,1.01,9.95,1.7,14.55.68,4.49,1.65,8.93,2.52,13.52-5.21-4.74-8.67-19.38-4.22-28.07ZM92.77,443.86c2.29,3.88,4.22,23.91,3.92,42.74-2.88-14.1-4.64-28.31-3.92-42.74ZM88.13,421.36c.3.34.59.68.89,1.02-.15,3.3-3.09,3.12-5.17,4.01-.21-.25-.42-.49-.63-.74,1.64-1.43,3.27-2.86,4.91-4.29ZM81.37,398.7c.37.35.74.7,1.11,1.05-1.74,1.78-3.48,3.57-5.22,5.35l-.98-.92c1.69-1.83,3.39-3.66,5.08-5.48ZM72.65,386.12c-1.15-1.01-2.09-2.95-2.07-4.46.05-3.24.77-6.47,1.35-10.66,2.41,3.56,4.36,6.29,6.13,9.13,1.12,1.79.49,3.44-1,4.8-1.29,1.18-2.88,2.54-4.41,1.19ZM73.27,431.39c-1.75-2.27-3.5-4.54-5.25-6.81.45-.33.9-.66,1.35-.98,1.62,2.36,3.24,4.72,4.86,7.08-.32.24-.64.48-.96.72ZM22.97,361.2c7.58,2.74,12.95,7.15,14.4,15.53-6.17-4.02-11.24-8.71-14.4-15.53ZM31.94,234.36c-.29-.09-.57-.19-.86-.28.1-1.34.14-2.69.34-4.01.05-.32.78-.86.93-.78.43.22,1.08.8,1.01,1.07-.36,1.36-.92,2.68-1.42,4ZM33.1,227.58l-1.06-.44c.84-2.11,1.68-4.22,2.53-6.33.23.08.47.15.7.23-.63,2.21-.39,4.69-2.17,6.54ZM109.57,195.49c-7.96-2.69-11.99-9.12-17.05-14.3l9.89,6.52c.16-.22.32-.45.48-.67-3.26-2.53-6.53-5.05-9.79-7.58,4.04-1.61,7.28-.31,10.37,1.46,1.72.99,3.31,2.22,4.92,3.39.46.33,1.1.84,1.11,1.29.1,3.13.05,6.26.05,9.9ZM119.29,172.89c-2.24,2.83-2.22,4.04.04,6.81,1.32,1.62,2.63,3.25,3.79,4.97.63.93.95,2.07,1.63,3.62-5.45.84-9.38-1.34-13.29-3.47-1.92-1.04-3.69-2.37-5.49-3.6-3.71-2.53-7.67-4.17-12.28-3.92-1.14.06-2.31-.25-3.75-.43.82-1.41,1.44-2.48,2.06-3.55l-.44-1.08c6.14-.45,12.27-.89,18.4-1.34.03-.14.06-.29.09-.43-1.65-.4-3.3-.8-5.62-1.37,5.43-2.05,9.8-5.57,15.59-4.87,3.34.41,4.08,2.02,2.2,4.89-.87,1.33-1.94,2.52-2.93,3.77ZM123.29,153.53c2.65.28,4.2,1.82,4.28,4.51.12,4.37.24,8.74.12,13.1-.06,2.15-2.98,2.84-6.05,1.42.76-1.36,1.59-2.68,2.24-4.08,1.28-2.76.59-4.72-2.38-5.09-2.75-.34-5.73-.13-8.4.59-4.59,1.24-9.02,3.09-13.53,4.63-.61.21-1.33.12-2.45.2,4.25-5.57,10.28-6.4,16.07-7.8-4.96-.48-9.35,1.06-13.48,3.57l-.54-.68c2.85-2.34,5.69-4.68,9.06-7.44-7.29,2.67-10.9,8.45-15.04,13.64,4.16-10.74,6.12-17.52,21.23-17.24,2.96.06,5.93.36,8.88.66ZM89.9,164.31c2.08-3.86,2.05-7.96,1.88-12.2-.11-2.71.31-5.6,1.19-8.17,1.63-4.77,5.15-6.77,10.2-6.46,4.53.28,8.22,3.1,9.46,7.37.54,1.87.88,3.8,1.49,6.52-10.6-.66-16.58,4.26-19.63,10.19.93-3.89,1.39-9.3,5.74-12.77-2.19.18-3.12,1.05-4.16,3.93-1.34,3.73-2.7,7.45-4.14,11.14-.36.93-1.08,1.72-2.25,2.3.07-.62-.05-1.34.23-1.85ZM44.88,198.21c-1.05,3.96-2.68,7.77-4.24,11.57-.86,2.1-2.04,4.06-3.07,6.08,1.1-1.36,2.19-2.72,3.29-4.08.15.07.3.14.45.21-1.46,3.38-2.93,6.76-4.39,10.14-.26-.08-.51-.17-.77-.25.5-2.04,1.01-4.08,1.51-6.11-.31.39-.61.78-.92,1.16-.19-.09-.38-.18-.56-.27,2.42-8,4.84-15.99,7.26-23.99.23-.05.47-.11.7-.16.29,1.91,1.21,3.99.76,5.7ZM49.08,184.2c-.83,4.22-1.54,7.86-2.26,11.5-2.52-4.31-1.78-7.4,2.26-11.5ZM214.94,92.94c.18.24.36.49.54.73-1.66,1.42-3.32,2.85-4.99,4.28,0,0,0,0,0,0-.79-.24-1.57-.47-2.54-.76,2.37-1.44,4.68-2.84,7-4.24ZM207.79,101.35c.23-.22.47-.45.7-.67,3.36.55,4.33,1.69,4.89,5.95-3.33-.47-6.04-1.68-7.82-5.15,2.06,1.36,3.8,2.51,5.55,3.67.31-.38.62-.75.93-1.13-1.42-.89-2.83-1.77-4.25-2.66ZM188.69,96.19c3.36,2.97,8.62,3.72,10.03,9.64-3.54-2.45-6.57-4.41-9.41-6.61-.66-.51-.69-1.83-.62-3.03ZM194.48,84.86c-1.63,3.78-7.16,7.32-11.22,7.2l-.46-.83c2.64-1.51,5.28-3.01,7.92-4.52-4.24-.39-7.14,2.24-10.47,4.98,1.61-5.54,6.88-7.85,14.23-6.83ZM169.32,93.85c1.7,4.75,1.73,10.28,6.84,13.19-2.83-.2-5.25-.58-7.66-.5-2.33.08-3.41-1.14-4.21-2.98,1.31.61,2.64,1.19,3.97,1.77.22-.18.43-.36.65-.55-2.57-1.49-2.38-3.13-1.18-5.33.85-1.56.79-3.61,1.6-5.61ZM164.28,103.54s0,0,0,0c-.4-2.78.39-5.2,2.76-7.09-.92,2.36-1.84,4.73-2.76,7.09ZM166.18,83.63c-1.67,2.69-3.23,5.2-4.79,7.71-1.43-4.25,1.03-7.85,4.79-7.71ZM141.7,98.42c4.17,1.26,6.71,3.73,8.57,7.19-5.72.62-9.11-1.24-10.85-6.51,2.55,1.98,4.57,3.55,6.59,5.12.22-.22.44-.45.65-.67-1.55-1.6-3.1-3.19-4.97-5.12ZM145.02,86.83c-1.71,2.82-3.26,5.41-4.82,7.99-.4-.23-.8-.45-1.2-.68,1.01-1.81,2.02-3.62,3.04-5.43l-.25-.42c-1.31,1.07-2.61,2.14-3.75,3.07.19-2.94,2.41-4.6,6.98-4.52ZM133.19,112.47c-1.92-.96-4.8.1-5.38-3.68-.27-1.72-2.47-3.15-4.16-5.13q4.3.14,9.54,8.81ZM126.17,93.26c-.49,4.06-2.72,6.82-5.76,7.13.66-3.53,3.42-6.95,5.76-7.13ZM121.1,94.79c-.88,1.78-1.81,3.67-2.74,5.56-1.44-2.35-.57-4.04,2.74-5.56ZM112.14,113.82c-2.29-.6-4.58-1.19-6.88-1.79.11-.4.23-.8.34-1.19,2.27.65,4.54,1.31,6.82,1.96-.09.34-.19.68-.28,1.02ZM105.24,108.65c2.23.46,4.47.92,6.7,1.38-.08.38-.15.76-.23,1.15-2.2-.49-4.39-.97-6.59-1.46.04-.35.08-.71.12-1.06ZM96.22,116.49c-3.21,1.17-5.72,2.09-8.24,3.01-.07-.18-.14-.36-.21-.53,1.01-.52,2.03-1.04,3.04-1.56-.05-.25-.1-.49-.15-.74l-4.25.61c2.79-1.61,5.64-3.06,9.8-.78ZM88.12,107.67c1.1-3.35,2.19-6.7,3.29-10.05.32.13.65.26.97.4-1.51,3.18-.5,7.29-4.26,9.65ZM103.4,79.44q-.92.56-.34,9.52c-4.38-1.45-3.98-9.26.75-14.51,3.5,4.76,4.18,10.96,1.08,14.22-.54-3.34-1.02-6.3-1.49-9.22ZM93.97,107.29c-.27-.25-.54-.5-.8-.75,2.14-2.6,4.26-5.21,6.42-7.8.76-.92,1.78-1.68,2.37-2.69,2.59-4.43,6.55-6.14,11.51-5.9-6.51,5.73-13.01,11.43-19.5,17.14ZM111.84,89.04c1.45-1.65,3.63-4.14,5.81-6.63-.29-.33-.57-.65-.86-.98l-6.79,6.18c1.65-5.41,5.18-7.68,9.77-7.05-1.19,3.89-6.11,8.37-7.93,8.48ZM145.58,72.62l.36-.81,5.52,2.47c-.07.31-.15.63-.22.94h-6.62l-.05-.53c1.14-.15,2.29-.3,3.43-.44.05-.19.09-.38.14-.57-.85-.35-1.71-.7-2.56-1.06ZM143.32,69.11c-.33-.19-.65-.38-.98-.56.38-.83.73-1.67,1.14-2.48.69-1.38,3.1-2.09,1.62-4.45-.12-.19,2.3-1.96,3.53-3,.3.27.6.54.89.82-2.07,3.22-4.14,6.45-6.21,9.67ZM172.39,69.15c-2.84.59-5.54,1.47-8.28,1.57-1.26.04-2.56-1.45-3.85-2.25l.57-.67c1.83.29,3.67.58,5.5.87.07-.39.14-.77.2-1.16-1.15-.27-2.38-.37-3.44-.85-1.11-.5-2.05-1.37-3.3-2.24,3.56-1.01,9.06,1.14,12.59,4.73ZM162.48,61.02c-.41-.27-.83-.54-1.24-.81,1.35-2.43,2.71-4.87,4.17-7.5.02.01-.5-.29-1.97-1.14,2.89-1.07,5.08-1.88,7.27-2.69.2.35.4.7.6,1.05-3.71,3.07-4.95,8.16-8.83,11.09ZM191.15,70.61c-7.78-1.12-10-.62-10.24-8.03,3.17,6.32,4.61,7.35,7.59,5.33-4.8-.76-5.69-4.12-5.8-8.13,4.81,2.09,6.55,6.37,8.45,10.83ZM182.42,55.5c.11-4.51,4.09-5.83,5.93-8.68-4.14,1.4-6.81,4.22-8.04,9.35-1.2-6.36,5.89-13,13.42-13.24-3.99,4.32-4.1,11.31-11.32,12.57ZM214.61,63.68c-8.91.97-10.98.26-12.81-4.53,2.83,1.14,5.48,2.21,8.13,3.28l.37-.83-9.08-5.3c.15-.24.3-.49.45-.73,5.06,1.24,9.68,3.2,12.93,8.11ZM202.13,53.49c2.34-4.41,6.12-6,9.49-8.03-.22-.34-.45-.69-.67-1.03-2.51,1.43-5.02,2.86-7.48,4.26.55-3.92,6.08-6.95,13.79-7.01-5.16,4.04-7.8,10.13-15.13,11.82ZM241.1,31.63c2.76,7.13-2.89,14.18-11.87,17.62,3.43-3.81,6.39-7.09,9.35-10.38-.39-.37-.78-.73-1.17-1.1-3.46,3.62-6.92,7.24-10.51,11,.62-6.46,5.9-12.74,14.2-17.14ZM229.55,65.64c-.29.12-.58.24-.88.35l-2.54-6.18c.39-.15.78-.3,1.17-.45l2.25,6.28ZM229.1,55.08c2.83-.42,5.19-.77,7.56-1.12-.04-.41-.08-.82-.12-1.23-1.53.16-3.05.39-4.58.47-1.61.08-3.23.02-4.85.02-.04-.43-.08-.87-.12-1.3,5.38-.93,10.76-1.86,16.64-2.88-6.21,6.48-8.98,8.43-14.54,6.03ZM271.63,57c-5.78,1.34-10.04-2.59-10.37-9.16,1.97,2.19,3.75,4.16,5.53,6.14.23-.18.46-.37.69-.55-1.45-1.96-2.89-3.92-4.34-5.88l1.14-.87c2.4,3.37,4.8,6.73,7.36,10.32ZM262.73,44.65c2.2-2.65,3.96-4.76,5.85-7.03-3.84.26-4.59,4.28-7.23,5.94-1.18-4.37-.66-5.85,2.76-7.8,2.41-1.37,4.88-2.64,7.34-3.94.14-.08.37.01.96.04-.26,3.62,1.18,7.56-2.32,10.43-1.8,1.48-3.67,3.25-7.36,2.35ZM297.81,52.28c.11-.5.21-1,.5-2.38,2.29,2.58,4.15,4.68,6.01,6.78-.21.21-.42.42-.63.62-2.74-.71-5.53-1.26-8.2-2.19-3-1.04-3.79-3.55-1.79-7.34,1.13,1.99,2.09,3.7,3.06,5.41.35-.3.7-.6,1.05-.9ZM294.28,45.35c1.04-1.86,1.78-3.42,2.75-4.83.98-1.43,2.19-2.7,3.07-4.25-3.62.84-4.65,4.27-6.88,7.29-.1-3.1-.25-5.66,2.28-7.26,3.32-2.1,6.73-4.06,10.09-6.07,1.43,6.03-3.45,12.88-11.31,15.12ZM331.34,45.76c.13.4.25.8.38,1.2-2.15.77-4.3,1.54-6.45,2.31-.14-.49-.28-.97-.42-1.46,2.17-.68,4.33-1.36,6.5-2.05ZM328.73,55.61c-1.62-1.07-3.24-2.14-4.85-3.21.26-.42.53-.84.79-1.26,1.63,1.07,3.25,2.14,4.88,3.21-.27.42-.55.84-.82,1.26ZM351.85,51.79c.07.5.15,1,.22,1.5-2.11.37-4.23.74-6.34,1.12-.08-.54-.17-1.07-.25-1.61,2.13-.34,4.25-.67,6.38-1.01ZM348.05,62.49c-.81-1.72-1.62-3.44-2.43-5.16.33-.16.65-.33.98-.49.89,1.72,1.79,3.44,2.68,5.16-.41.16-.82.32-1.23.49ZM365.97,61.74c-.07-.21-.13-.41-.2-.62,2.13-.96,4.22-2.05,6.41-2.82.61-.21,1.55.5,2.34.78-.5.58-.93,1.56-1.53,1.68-2.31.47-4.68.67-7.02.97ZM393.67,80.07c-.95-2.05-1.91-4.1-2.86-6.15,3.84.36,4.57,2.07,2.86,6.15ZM391.32,69.12c.93-.97,1.78-2.65,2.82-2.79,2.67-.34,5.43,0,8.16.07.07.5.15,1,.22,1.51-2.46,1.15-4.85,2.63-7.44,3.29-1.01.26-2.5-1.33-3.76-2.07ZM412.53,87.81c-.69-1.47-1.38-2.95-2.29-4.87,2.95.92,2.99,1,2.29,4.87ZM414.99,81.8l-.31-1.33c2-.43,4-.86,6-1.29.1.44.19.89.29,1.33l-5.98,1.29ZM452.33,110.85c-3.7-.21-7.44-.18-11.06-.8-.93-.16-1.77-2.32-2.15-3.69-.24-.88.44-2.02.7-3.05.17-.01.35-.03.52-.04.24,1.03.47,2.07.71,3.1l.37.04c.11-.85.22-1.7.37-2.94.93,1.25,1.68,2.27,2.43,3.28l.44-.23c-.41-1.13-.81-2.26-1.4-3.88,1.25.73,2.05,1.2,3.09,1.81-.15-.78-.26-1.37-.37-1.95.19-.12.38-.25.57-.37,2.06,2.56,4.12,5.11,6.18,7.67-.14.35-.27.7-.41,1.05Z"/>
      <path class="cls-1" d="M218.31,4.93c.76-1.16,1.45-2.38,2.29-3.47.32-.41.71-.92,1.12-1.27-.66,0-1.33-.02-1.99-.03-.7,1.59-1.31,2.98-1.91,4.36.16.14.33.28.49.42Z"/>
      <path class="cls-1" d="M248.38.38c-1.6,3.21-5.48,5.88-9.62,6.18,2.08-1.46,3.62-2.53,5.16-3.61-.11-.23-.21-.47-.32-.7-2.57,1.28-5.15,2.56-8.1,4.02.42-3.39,1.4-5.25,3.27-6.07-.85-.02-1.7-.04-2.55-.06-.9,1.87-1.64,3.55-2.56,5.09-.39.65-1.28,1.36-1.99,1.42-4.35.34-8.72.58-13.08.67-.8.02-1.61-.83-2.78-1.49-1.06.31-2.7.79-4.65,1.36,1.09-3.59,3.79-6.17,7.26-7.05-1.4-.02-2.81-.05-4.21-.07-1.55,1.79-3.01,3.47-4.87,5.6.24-3.64.91-5.15,2.87-5.64-1.09-.02-2.18-.02-3.27-.03-.41,1.96-.72,3.71-1.22,5.41-.18.6-.87,1.44-1.41,1.5-7.1.81-14.22,1.5-21.33,2.2-.14.01-.31-.19-.49-.31.78-1.8,1.49-3.63,2.34-5.4.52-1.07,1.14-1.93,1.92-2.57-.6,0-1.21,0-1.81,0-2.02,2.79-1.97,6.86-5.8,8.2-.29-.18-.58-.36-.87-.53,1.37-2.39,2.74-4.78,4.11-7.17l-.55-.42c-.09,0-.19.01-.28.02-1.37,1.75-2.73,3.5-4.08,5.22-.06-2.13,1.14-4.02,3.05-5.15-.5.04-1,.09-1.49.15-.48.06-.96.13-1.44.22-.66,2.45-1.26,4.72-1.99,6.94-.22.68-.98,1.37-1.66,1.69-3.97,1.83-8,3.54-11.99,5.32-2.63,1.18-5.23,2.41-8.52,3.92,1.06-4.41,1.89-7.84,2.77-11.48-2.83-.44-5.29.04-6.7,2.09-2.69,3.89-3.83,8.12-.45,12.32-3.62,3.16-7.02,6.12-10.93,9.53.64-3.33,1.18-5.82,1.57-8.34.38-2.45.6-4.92.97-8.05-2.83,2.14-4.98,3.73-7.1,5.36-5.78,4.42-6.55,9.54-2.41,15.35.49.69,1.03,2.04.7,2.51-1.99,2.88-4.22,5.6-6.76,8.88-.21-6.75-1.63-12.31-6.14-17-4.15,8.12-6.29,15.8,3.1,21.94-1.28,3.22-2.54,6.41-3.81,9.61,1.56-2.49,3.12-4.98,4.66-7.44,4.82,2.17,17.26-.47,21.15-4.45-5.43-5.75-11.3-5.1-17.46-.83-.15-.28-.29-.55-.44-.83,2.58-3.51,5.16-7.01,7.69-10.45,6.87,3.47,15.17,2.36,18.53-2.55-4.86-.75-9.5-1.47-13.93-2.15,1.65-1.53,3.53-3.63,5.75-5.24,4.49-3.25,9.13-6.3,13.81-9.27.63-.4,2.38-.17,2.74.35,4.02,5.94,10.18,3.15,15.43,4.17-3.07-3.55-4.97-8.54-11.13-8.13,3.91-1.82,7.68-3.33,11.6-4.09,3.39-.65,6.99-.14,10.42-.68,3.36-.52,4.89.48,5.62,3.81.34,1.55,1.61,3.47,2.98,4.1,4.04,1.87,8.44,1.45,13.11.75-1.22-2.34-2.43-4.68-4.32-6.17-1.96-1.55-4.56-2.28-6.89-3.37.03-.26.06-.53.08-.79h32.3c-.93,6.37,4.59,13.04,11.31,13.05,1.2-6.58-2.4-10.28-7.98-12.91,5.51-.48,10-2.6,13.34-6.53.75-.88,1.52-1.48,2.33-1.89-.87,0-1.74-.02-2.61-.03ZM125.15,48.22c-.86-3.12-1.59-5.8-2.32-8.48-.36.07-.73.14-1.09.2.66,3.14,1.31,6.29,2,9.58-5.57-2.32-6.52-9.77-2.34-16.5,3.31,2.97,5.22,10.1,3.76,15.2ZM144.02,50.28c-5.4,2.48-10.73,4.24-16.51,4.11-.08-.29-.17-.59-.25-.88,3.58-1.1,7.16-2.2,11.4-3.51-4.13-1.49-6.96,1.19-10.71,1.59,6.25-5.35,11.37-5.76,16.07-1.31ZM135.42,34.45c.81-3.98,1.63-7.96,2.39-11.69-2.02.52-2.11.73-2.63,4.81-.27,2.13-.76,4.24-1.17,6.47-4.86-3.74-1.55-11.1,6.74-15.1.28,5.87-.93,11.1-4.17,15.77-.39-.09-.78-.17-1.16-.26ZM147.38,36.16c-1.95-.11-3.9-.22-6.51-.37,3.87-2.1,6.6-.36,9.95.76-3.86,2.38-7.29,3.6-11.09,1,2.56-.15,5.12-.29,7.68-.44,0-.32-.02-.64-.02-.96ZM153.07,18.18c.49-2.53.98-5.05,1.54-7.95-3.81,2.24-2.38,6.01-3.07,9.18-2.37-3.77.34-9.55,4.8-10.1-.73,3.12-1.44,6.11-2.14,9.1-.38-.07-.76-.15-1.13-.22ZM167.52,17.44c3.68-.75,5.22.1,7.64,4.6-4.1-.64-8.17.63-10.62-3.76l6.59,2.29c.11-.26.22-.51.32-.77-1.29-.78-2.59-1.56-3.93-2.37ZM208.77,17.88c-6.11,1.42-11.21-.16-12.65-4.18,1.62,1.01,2.98,1.86,4.35,2.71.14-.2.27-.4.41-.59-1.78-1.69-3.57-3.39-5.6-5.32,5.16-.83,11.62,2.84,13.49,7.38ZM236.58,11.54c3.79.82,5.42,3.26,5.54,8.3-4.58-.5-8.92-4.74-8.28-9.17,1.82,2.18,3.29,3.93,4.75,5.68l.76-.6c-.92-1.41-1.85-2.82-2.76-4.21Z"/>
      <path class="cls-1" d="M575.83,453.92c-1.38,1.78-2.75,3.57-4.24,5.49,1.95,1.7,1.82,3.67,0,5.44-.6.58-1.74.62-2.63.9-.13-.81-.29-1.62-.36-2.44-.03-.35.17-.71.08-1.16-2.77,3-6.48,5.37-6.62,10.37,2.15-.27,4.24-.12,4.02,2.64-.08.96-1.13,1.85-1.74,2.77-.95-.79-1.9-1.59-2.58-2.15-1.5,1.84-3.32,4.02-5.08,6.24-.41.52-.61,1.21-.99,1.76-.71,1.03-1.29,2.35-2.29,2.94-.92.55-2.31.32-3.5.43.58-1.12.9-2.57,1.79-3.31,2.32-1.88,4.89-3.45,7.36-5.14-.17-.29-.34-.58-.51-.86-.98.28-1.96.79-2.94.78-.85,0-1.7-.57-2.56-.89.48-.88.8-2.33,1.48-2.53,1.69-.49,3.54-.4,5.78-.58.41-1.84.96-4.32,1.65-7.39-3.16,1.88-5.91,3.53-8.67,5.15-2.06,1.22-4.07,2.54-6.21,3.59-2.23,1.09-4.65,1.83-4.03,5.15.09.47-.33,1.28-.76,1.55-1.09.69-2.32,1.16-3.49,1.72.04-1.15.05-2.31.13-3.46.02-.27.22-.54.51-1.21-2.31.61-4.34,1.14-6.36,1.68-.08-.19-.15-.37-.23-.56,3.15-1.28,6.3-2.55,9.16-3.71-2.65-1.54-5.35-2.86-7.77-4.58-2.55-1.8-4.9-1.03-7.35-.1-.92.35-1.73,1.1-2.67,1.29-.96.2-2.02-.07-3.03-.13.25-1.07.19-2.37.8-3.16,1.77-2.28,3.58-2,6.06-.66,1.86,1,4.29.95,6.91,1.45-.69-1.2-1.31-2.06-1.67-3.01-.21-.56-.24-1.5.09-1.86.34-.37,1.28-.47,1.86-.32,2.69.7,3.33,3.65,1.54,6.82,2.66,2.65,7.11,3.47,10.7,1.57,4.55-2.42,8.93-5.17,14.02-8.14-1.65-.33-2.81-.27-3.56-.8-.76-.53-1.62-1.73-1.5-2.47.12-.7,1.46-1.66,2.28-1.68,1.44-.03,3.23.17,4.26,1.02,1.8,1.48,2.88.66,4.08-.49,2.08-2,4.09-4.07,6.2-6.04.77-.72,1.74-1.24,2.62-1.85,0,0-.07-.07-.07-.07Z"/>
      <path class="cls-1" d="M497.22,485.73c4.9,1.91,9.89.88,14.76.09,5.48-.89,10.85-2.43,16.28-3.68.37-.08.76-.05,1.15-.07,0,.28.04.58,0,.59-3.25.9-5.69,2.5-6.88,5.99-.44,1.31-2.18,3.54-3.79.27-.21-.42-1.98-.5-2.74-.14-3.31,1.58-5.81,3.98-7.52,7.37-1.36,2.7-3.17,5.23-5.16,7.52-.72.83-2.52.71-3.83,1.02.49-1.26.74-3.42,1.51-3.63,4.69-1.28,6-5.56,8.73-8.65,2.38-2.7,5.92-4.37,8.86-6.43-4.78.66-9.9,1.37-14.12,1.95-1.57,2.09-2.53,3.69-3.83,4.94-.52.5-1.79.21-2.72.28.14-.88.21-1.78.46-2.63.15-.51.61-.93,1.29-1.91-4.17.29-7.79.5-11.39.86-.48.05-.89.88-1.32,1.36-1.04,1.19-1.95,2.53-3.15,3.52-.64.53-1.77.45-2.68.64-.05-.92-.23-1.86-.09-2.76.1-.63.63-1.2.97-1.82-3.33-1.12-5.81-.18-8.25,1.97-1.93,1.69-4.43,2.76-6.8,3.87-.54.26-2.03-.28-2.23-.78-.29-.75-.15-2.24.38-2.63,1.48-1.07,3.2-2.25,4.94-2.47,7.79-.97,15.62-1.55,23.43-2.42,1.44-.16,3.95.82,3.75-2.28l-.02.04Z"/>
      <path class="cls-1" d="M616.42,283.83c.5,1.14,1,2.28,1.49,3.42,2.73,7.57,5.88,15.02,8.02,22.76,1.07,3.88.33,8.27.36,12.43.03,4.81,0,9.62-.54,14.49-6.43-17.57-9.93-35.71-11.82-54.19.24-.15.47-.3.71-.45.59.51,1.19,1.03,1.78,1.54ZM624.74,330.06c.15-2.15.39-4.29.42-6.44.08-4.36.95-8.96-.15-13.02-2.02-7.44-5.22-14.56-7.96-21.8-.25-.67-.72-1.26-1.09-1.89,1.3,14.76,3.66,29.2,8.77,43.14Z"/>
      <path class="cls-1" d="M35.43,337.36c1.13-2.93,2.1-5.93,3.42-8.78,3.09-6.67,4.21-13.79,4.93-21.12-1.56,3.2-3.12,6.4-4.69,9.6-.18-.08-.35-.16-.53-.24,2.67-6.87,5.35-13.74,8.14-20.91.18.7.52,1.25.42,1.7-2.17,9.88-4.15,19.82-6.73,29.6-.94,3.55-3.32,6.72-5.04,10.07,0,0,.07.07.07.07Z"/>
      <path class="cls-1" d="M589.96,442.2c.11-.72.21-1.44.32-2.16,0,0,.02.17.02.17.34-.92.5-1.96,1.03-2.75,5.59-8.31,11.24-16.58,16.65-24.53-3.5,8.59-9.17,16.44-14.4,23.24.95,2.74,1.76,4.69,2.24,6.73.15.65-.61,1.51-.95,2.27-.59-.54-1.3-1.01-1.75-1.65-.43-.62-.6-1.43-.89-2.17-.86.29-1.58.54-2.29.79l.03.05Z"/>
      <path class="cls-1" d="M497.23,485.69c-.91.16-1.88.61-2.71.43-1.34-.28-2.7-.81-3.85-1.54-3.67-2.33-7.54-3.3-11.91-2.7-1.26.17-2.69-.7-4-1.23-.11-.05.02-1.45.27-1.54,1.41-.48,3.15-1.42,4.32-.98,3.66,1.37,7.08,3.36,10.67,4.95,2.33,1.03,4.78,1.8,7.19,2.66.01-.02.03-.06.03-.06Z"/>
      <path class="cls-1" d="M41.35,224.89c7.25-2.46,14.2-5.45,19.41-11.49.26.3.52.59.79.89-1.57,1.37-3.07,2.83-4.72,4.1-1.7,1.3-3.55,2.41-5.52,3.72,4.07,1.49,7.91,2.91,11.76,4.32-.1.29-.2.57-.3.86-1.45-.54-2.98-.93-4.33-1.66-4.62-2.5-9.35-2-14.17-.87-.93.22-1.94.1-2.92.13,0,0,0,0,0,0Z"/>
      <path class="cls-1" d="M589.93,442.15c-.61,4.22.87,9-3.59,12.69.23-1.07.36-1.68.49-2.3-.28-.02-.47-.05-.66-.05-1.35.04-2.7.09-4.05.14,1.01-1.15,1.89-2.49,3.09-3.39.77-.58,2.02-.52,2.74-.68.71-2.22,1.36-4.27,2.01-6.34,0-.01-.03-.07-.03-.07Z"/>
      <path class="cls-1" d="M590.29,440.21s-.02-.17-.02-.17c-4.82,4.63-9.63,9.25-14.45,13.88,0,0,.07.07.07.07,1.35-1.87,2.7-3.73,3.93-5.44-.99-.43-2.09-.9-3.18-1.38,0,0-.07.06-.07.06,4.36-.28,7.17-3.42,10.51-5.62.96-.63,2.13-.94,3.21-1.4Z"/>
      <path class="cls-1" d="M576.65,447.17c-.84-.42-1.76-.73-2.51-1.28-1.92-1.38-3.6-.8-4.09,1.52-.6,2.82-2.66,4.2-6.24,3.81.52-1.12.72-2.47,1.5-3.03,2.13-1.56,4.38-3.1,6.82-4.06,2.55-1.01,2.99,2,4.46,3.1,0,0,.07-.06.07-.06Z"/>
      <path class="cls-1" d="M372.34,30.39c.73,1.45,1.16,2.31,1.59,3.16-.13.09-.26.18-.38.27-1.31-1.68-2.62-3.37-3.93-5.05l.41-.66c6.34,2.6,12.68,5.2,19.02,7.8-.11.29-.22.57-.33.86-5.22-2.03-10.44-4.06-16.39-6.37Z"/>
      <path class="cls-1" d="M642.78,312.63c7.01,5.81,14.02,11.62,21.02,17.44-.19.23-.38.45-.57.68-7.04-5.8-14.09-11.61-21.13-17.41.22-.24.45-.47.67-.71Z"/>
      <path class="cls-1" d="M52.79,349.35c.62-1.22,1.23-2.44,1.85-3.66.44.17.89.34,1.33.52-.02,6.72-1.03,13.26-4.19,20.05,1.28-6.44,2.44-12.27,3.59-18.11-.25-.12-.5-.24-.75-.36-.64.49-1.28.98-1.92,1.48,0,0,.07.08.07.08Z"/>
      <path class="cls-1" d="M572.28,438.2c2.02-1.03,3.54-.3,4.52,1.4.47.81.5,1.95.45,2.93,0,.19-1.41.62-1.99.42-2.18-.75-3.31-2.3-2.98-4.74Z"/>
      <path class="cls-1" d="M516.19,482.41c-1.51,1.13-2.51,2.11-2.7,1.97-1.52-1.08-2.89-2.38-4.3-3.6.43-.4,1.04-1.24,1.27-1.14,1.69.69,3.3,1.57,5.73,2.78Z"/>
      <path class="cls-1" d="M586.01,456.44c-.6,2.22-2.09,3.52-4.19,4.16-1.47.45-2.14-.23-1.76-1.72.5-1.96,3.57-3.27,5.94-2.44Z"/>
      <path class="cls-1" d="M511.34,500.64c-.35-.59-1.14-1.41-.98-1.72.82-1.56,1.9-2.98,2.89-4.46.46.37,1.38.9,1.32,1.07-.64,1.75-1.44,3.45-2.2,5.16-.34-.02-.69-.04-1.03-.06Z"/>
      <path class="cls-1" d="M488.79,477.11c2.77-.6,5.68,2.18,4.95,4.26-.14.38-1.87.73-2.05.48-1.07-1.44-1.91-3.05-2.9-4.74Z"/>
      <path class="cls-1" d="M68.76,398.34c-1.45-.52-3.02-.83-4.3-1.62-.85-.53-1.28-1.74-1.57-2.95,2.52.89,4.94,1.79,5.81,4.64,0,0,.06-.07.06-.07Z"/>
      <path class="cls-1" d="M68.69,165.33c2.84-2.28,6.12-2.72,9.67-2.12-3.24.69-6.48,1.37-9.73,2.06,0,0,.07.06.07.06Z"/>
      <path class="cls-1" d="M543.94,328.33c3.17,1.18,6.35,2.35,9.91,3.67-3.99-.05-7.38-.58-9.84-3.74,0,0-.08.07-.08.07Z"/>
      <path class="cls-1" d="M43.15,89.38c-3.54-.54-7.1-1.65-10.61-1.49-4.87.23-8.26,4.56-7.32,8.67.51,2.22,1.72,4.26,2.5,6.42,1.51,4.21,2.95,8.45,4.41,12.68-.38.13-.75.26-1.13.39-.41-1.4-1.08-2.78-1.18-4.2-.29-4.29-2.62-7.66-4.74-11.14-.9-1.48-4.85-1.42-7.43-.12-2.15,1.08-1.39,2.64-.72,4.05,1.7,3.54,3.53,7.02,5.14,10.62-3.08-3.74-5.9-7.63-6.63-12.65-.32-2.21,1.31-2.95,2.97-3.48,1.13-.36,2.44-.25,3.48-.75.84-.4,1.94-1.38,1.98-2.15.32-6.84,6.32-11.36,13.3-9.64,2.19.54,4.22,1.7,6.33,2.58-.12.07-.24.13-.35.2Z"/>
      <path class="cls-1" d="M55.82,128.42c3.36-5.52,6.17-11.5,12.17-14.98.1.36.24.67.19.69-4.53,2.87-7.12,7.37-9.99,11.65-.65.97-1.63,1.71-2.45,2.56l.07.07Z"/>
      <path class="cls-1" d="M12.87,204.47c-7.63-.04-11.82-.35-12.87-4.97,2.74,4.96,8.1,3.07,12.87,4.97Z"/>
      <path class="cls-1" d="M32.94,128.87c-3.61-1.64-5.64-4.44-5.69-8.68,1.87,2.92,3.75,5.83,5.62,8.75,0,0,.07-.07.07-.07Z"/>
      <path class="cls-1" d="M70.48,111.32c.09-4.25-.2-4.49-7.56-6.18,2.24-1.08,5.72-.67,7.38,1.44.9,1.14.83,3.04,1.2,4.59-.34.05-.68.1-1.02.15Z"/>
      <path class="cls-1" d="M41.23,174.75c-1.07,2.76-2.91,4.06-5.92,3.64-1.72-.24-3.51-.04-5.26-.04-.05-.26-.09-.53-.14-.79,1.2-.2,2.52-.81,3.59-.52,3.12.84,5.67.41,7.74-2.28Z"/>
      <path class="cls-1" d="M55.75,128.36c-2.65,2-5.3,4-7.95,6.01-.24-.35-.47-.7-.71-1.06,2.91-1.63,5.82-3.26,8.73-4.89,0,0-.07-.06-.07-.06Z"/>
      <path d="M36.91,222.13c-.26-.08-.51-.17-.77-.25"/>
      <path d="M214.94,92.94l.54.73"/>
      <path class="cls-1" d="M94.04,174.48c7.22-4.91,20.01-1.23,23.91,7.16-6.96-7.16-14.37-10.85-23.91-7.16Z"/>
      <path class="cls-1" d="M93.11,176.03c6.36-.29,12.76-.46,18.32,3.67-5.76-3.01-12.07-2.98-18.32-3.67Z"/>
      <path class="cls-1" d="M118.64,170.83c-2.17.21-4.34.41-6.52.62-.03-.31-.06-.63-.09-.94,2.17-.27,4.34-.54,6.51-.81.03.38.07.76.1,1.14Z"/>
    </g>
  </g>
</svg>