<?xml version="1.0" encoding="UTF-8"?>
<svg id="Calque_2" data-name="Calque 2" xmlns="http://www.w3.org/2000/svg" viewBox="0 0 187.81 446.09">
  <defs>
    <style>
      .cls-1 {
        fill: #adcfec;
      }
    </style>
  </defs>
  <g id="Calque_1-2" data-name="Calque 1">
    <path class="cls-1" d="M100.43,1.33c1.69,1.69,6.94,26.42,7.75,30.74,4.07,21.69,9.1,59.22-.99,79.03-2.71,5.31-11.08,12.76-12.06,15.02-.9,2.09.62,3.55.52,5.41-.31,5.43-7.95,7.55-8.05,8.14,11.76,32.75,15.76,68.25,18.07,102.92,1.63,24.41,2.6,52.71,1,76.98-1.33,20.18-7.34,41.93-9.84,62.16-2.1,16.92-3.12,33.47-.13,50.35l2.88-13.55c-3.27-9.58.4-24.12,2.78-34.27,7.29-31.01,25.69-61.07,25.36-93.72-.36-35.85-7.1-69.15,12.54-102.37,8.4-14.21,29.07-32.48,45.12-36.89,1.17-.32,2.95-.72,2.31,1.3-.24.74-2.15,1.09-3.03,1.95-36.74,35.69-25.24,76.91-27.94,123.1-3.67,62.86-59.13,99.69-56.25,165.27.07,1.61.08,2.73-1.78,3.19-14.04-41.5,2.53-84.14,5.98-125.51,3.23-38.77-.35-90.16-6.16-128.82-1.07-7.16-8.78-48.8-13.03-51.47-2.38-1.5-9.6.92-9.91-5.73-.6-1.45,4.2-1.89,1.11-2.98-3.47-1.23-8.02-.08-12.07-.93C40.31,125.55,6.01,64.48.72,41.53c-2.91-12.62,3.11-15.27,15.2-13.2,3.76.64,20.5,10.36,21.73,13.28.66,1.57-.51,1.98-2.01,1-9.32-6.09-20.15-18.55-32.72-11.26-3.5,3.74,2,17.6,3.72,22.26,8.44,22.9,29.64,57.21,50.11,70.89,3.67,2.45,7.17,4.91,11.91,4.58-2.92-3.17-6.48-4.62-9.51-7.98-16.89-18.71-23.44-77.16-17.83-100.85C45.82,1.27,58.13-.05,70.08,14.18c1.14,1.35,5.85,10.48,7.58,8.91.04-6.51,15.82-28.71,22.77-21.75ZM89.67,125.08c10.89-.58,18.7-18.44,20.55-27.94,4.07-20.85-2.42-70.93-9.82-91.29-.64-1.76-.94-3.61-3.25-3.82-6.42-.59-18.54,18-18.54,23.55,0,3.34,10.78,18.3,13.23,22.83,10.44,19.26,18.97,44.48,6.65,64.99-.93,1.55-9.67,10.95-8.82,11.67ZM67.32,13.43c-7.65-8.28-17.31-10.57-22.43,1.38-9.59,22.39-.82,83.7,14.25,103.3,6.28,8.17,15.96,14.41,25.52,7.48-1.89-2.27-4.76-4.19-6.43-6.57-9.17-13-9.27-52.41-7.43-68.31.62-5.42,5.17-20.8,4.85-24.09-.1-.99-7.2-11.98-8.33-13.2ZM76.67,29.09c-4.46,19.86-6.06,40.17-4.01,60.49,1.17,11.59,2.44,27.95,13.5,34.17,32.43-24.66,10.65-69.28-9.5-94.67ZM84.87,136.86c3.78,2.26,10.86-3.09,8.32-7.8-1.49-2.31-4.73,1.02-6.5,1.56-2.52.76-6.13-.28-7.03,2.46,3.23-.67,4.45,3.33,5.21,3.78ZM178.66,157.1c-27.28,11.08-44.11,37.03-48.84,65.65-5.36,32.37,3.19,64.17-3.83,95.17-6.96,30.74-25.32,59.8-25.31,92.17l11.13-28.35c16.68-32.35,39.04-62.82,42.85-100.15,3.96-38.85-7.07-85.23,18.59-118.41,1.67-2.16,4.07-3.68,5.42-6.07Z"/>
  </g>
</svg>